# xmcd
#
# Track frame offsets:
# 150
# 64158
# 97619
# 150877
# 216874
# 266062
# 306071
#
# Disc length: 4418 seconds
#
#
# Revision: 0
# Processed by: cddbd v1.5.1PL2 Copyright (c) Steve Scherf et al.
# Submitted via: FreeRIP 2.944 
#
DISCID=50114007
DTITLE=Derek and the dominos - Live at the fillmore-Complete two nights edition cd 1
DYEAR=1970
DGENRE=Blues
TTITLE0=got to get better in a little while
TTITLE1=key to the higway
TTITLE2=tell the truth
TTITLE3=why does love got to be so sad
TTITLE4=blues power
TTITLE5=have you ever loved a woman
TTITLE6=bottle of red wine
EXTD=
EXTT0=
EXTT1=
EXTT2=
EXTT3=
EXTT4=
EXTT5=
EXTT6=
PLAYORDER=
